# xmcd
#
# Track frame offsets:
#        187
#        17880
#        34432
#        47815
#        65332
#        80282
#        96715
#        112610
#        129500
#        146285
#
# Disc length: 2143 seconds
#
# Revision: 0
# Processed by: cddbd v1.5.1PL0 Copyright (c) Steve Scherf et al.
# Submitted via: ExactAudioCopy v0.95a5
#
DISCID=83085d0a
DTITLE=Hiroyasu Yaguchi - GASTRONOMIC
DYEAR=1988
DGENRE=Instrumental
TTITLE0=GORILLA ONOMATOPOEIA
TTITLE1=HAWAIIAN RHAPSODY
TTITLE2=LUNAR LUNATIC
TTITLE3=THE SCORCHER
TTITLE4=KAFF
TTITLE5=STRAWBERRY MOOSE
TTITLE6=PAPADOM
TTITLE7=FUNK GASTRONOMIC
TTITLE8=GASTRONOMIC
TTITLE9=ENGLISH JAPANESE
EXTD=
EXTT0=
EXTT1=
EXTT2=
EXTT3=
EXTT4=
EXTT5=
EXTT6=
EXTT7=
EXTT8=
EXTT9=
PLAYORDER=
